<svg xmlns="http://www.w3.org/2000/svg" viewbox="0 0 100 100">
	<defs>
		<radialGradient id="gradYellow" cx="50%" cy="50%" r="80%" fx="90%" fy="80%">
			<stop offset="0%" style="stop-color:yellow; stop-opacity:1" />
			<stop offset="100%" style="stop-color:orange ;stop-opacity:1" />
		</radialGradient> 
		<radialGradient id="gradGray" cx="50%" cy="50%" r="50%" fx="50%" fy="50%">
			<stop offset="0%" style="stop-color:white; stop-opacity:1" />
			<stop offset="100%" style="stop-color:darkgray ;stop-opacity:1" />
		</radialGradient>
		 <linearGradient id="gradWhite" x1="40%" y1="50%" x2="90%" y2="90%">
			<stop offset="0%" style="stop-color:white;stop-opacity:1" />
			<stop offset="100%" style="stop-color:darkgray;stop-opacity:1" />
		</linearGradient>     
	</defs>
	
	
	<symbol id="moon">
		<path d="M60,20 A30,30 0 1,0 90,65 22,22 0 1,1 60,20z" fill="url(#gradYellow)"/>
    </symbol>
	    <symbol id="grayCloud">
		<path  d="M20,15 Q25,0 45,11 Q60,5 60,20 A30,15 5 1,1 20,15 Z" />
	</symbol>
	<symbol id="whiteCloud">
		<path fill="url(#gradWhite)" d="M11,47 Q13,37 21,42 Q31,30 41,38 A28,21 -25 1,1 35,75 Q23,85 19,73 A12,12 0 0,1 11,47Z" />
	</symbol>
	<symbol id="rainDrop">
		<path fill="lightblue" d="M10 0 Q10,0 14,7 A5,5 0 1,1 6,7 Q10,0 10,0Z" />
	</symbol>
	

	<use href="#moon" x="-20" y="-15"/>
	<g>
		<use href="#grayCloud" class="small-cloud" fill="url(#gradGray)"/>
		<animateTransform attributeName="transform" type="translate" values="0 15; 15 0; 30 0; 25 0; 0 15" dur="8s" repeatCount="indefinite"/>
		<animate attributeName="opacity" values="0.5;1;1;1;0.5" dur="8s" repeatCount="indefinite"/>
	</g>
	<g>
		<use id="drop1" href="#rainDrop" x="25" y="65"/>
		<animateTransform attributeName="transform" type="translate" values="0 0; 0 5; 0 15; 0 25; 0 35" dur="1s" repeatCount="indefinite"/>
		<animate attributeName="opacity" values="1;1;1;0.75;0" dur="1s" repeatCount="indefinite"/>
	</g>
	<g>
		<use id="drop3" href="#rainDrop" x="45" y="65"/>
		<animateTransform attributeName="transform" type="translate" values="0 0; 0 5; 0 15; 0 25; 0 35" dur="1s" begin="0.5s" repeatCount="indefinite"/>
		<animate attributeName="opacity" values="1;1;1;0.75;0" dur="1s" begin="0.5s" repeatCount="indefinite"/>
	</g>
	<use href="#whiteCloud" x="7" />

</svg>