<svg xmlns="http://www.w3.org/2000/svg" viewbox="0 0 100 100">
	<defs>
		<radialGradient id="gradDarkGray" cx="50%" cy="50%" r="50%" fx="50%" fy="50%">
			<stop offset="0%" style="stop-color:white; stop-opacity:1" />
			<stop offset="70%" style="stop-color:gray; stop-opacity:1" />
			<stop offset="100%" style="stop-color:dimgray ;stop-opacity:1" />
		</radialGradient>
		 <linearGradient id="gradWhite" x1="40%" y1="50%" x2="90%" y2="90%">
			<stop offset="0%" style="stop-color:white;stop-opacity:1" />
			<stop offset="100%" style="stop-color:darkgray;stop-opacity:1" />
		</linearGradient>     
	</defs>
	<symbol id="grayCloud">
		<path  d="M20,15 Q25,0 45,11 Q60,5 60,20 A30,15 5 1,1 20,15 Z" />
	</symbol>
	<symbol id="whiteCloud">
		<path fill="url(#gradWhite)" d="M11,47 Q13,37 21,42 Q31,30 41,38 A28,21 -25 1,1 35,75 Q23,85 19,73 A12,12 0 0,1 11,47Z" />
	</symbol>
  <symbol id="snowFlake" fill="none" stroke="white" stroke-width="0.6">
    <path d="M5,0 L5,10 M0,5 L10,5 M1.5,1.5 L8.5,8.5 M8.5,1.5 L1.5,8.5" />
    <path d="M3.5,0.25 L5,2 L6.5,0.25 M3.5,9.75 L5,8 L6.5,9.75" />
    <path d="M0.25,3.5 L2,5 L0.25,6.5 M9.75,3.5 L8,5 L9.75,6.5" />
    <path d="M0.75,2.90 L2.85,2.85 L2.90,0.75 M7.25,9.35 L7.15,7.15 L9.35,7.25" />
    <path d="M0.75,7.25 L2.85,7.15 L2.90,9.35 M7.15,0.75 L7.25,2.85 L9.35,2.90" />
  </symbol>
  	<symbol id="rainDrizzle" stroke="lightblue" stroke-width="1" stroke-dasharray="3"
 stroke-dashoffset="1">
		<line x1="20" y1="2" x2="10" y2="40" />
		<animate attributeName="stroke-dashoffset" values="40;10" dur="5s" repeatCount="indefinite"/>
	</symbol>
  
  	<g>
		<use href="#grayCloud" x="25" y="10" class="reverse-small-cloud" fill="url(#gradDarkGray)"/>
		<animateTransform attributeName="transform" type="translate" values="0 -15; -15 0; -30 0; -25 0; 0 -15" dur="6s" repeatCount="indefinite"/>
		<animate attributeName="opacity" values="0.5;1;1;1;0.5" dur="6s" repeatCount="indefinite"/>
	</g>
	  <use href="#rainDrizzle" x="15" y="65"/>
      <use href="#rainDrizzle" x="25" y="65"/>
      <use href="#rainDrizzle" x="35" y="65"/>
      <use href="#rainDrizzle" x="45" y="65"/>

	<g>
		<use id="snowFlake1" href="#snowFlake" x="20" y="65"/>
		<animateTransform attributeName="transform" type="translate" values="5 0; 0 10; 7 20; 0 30; 10 40" dur="4s" repeatCount="indefinite" />
		<animate attributeName="opacity" values="1;1;1;0.75;0.5" dur="4s" repeatCount="indefinite" />
	</g>
	<g>
		<use id="snowFlake2" href="#snowFlake" x="35" y="65"/>
		<animateTransform attributeName="transform" type="translate" values="5 0; 0 10; 7 20; 0 30; 10 40" dur="3s" repeatCount="indefinite" begin="0.8s" />
		<animate attributeName="opacity" values="1;1;1;0.75;0.5" dur="3s" repeatCount="indefinite" begin="0.8s" />
	</g>
	<g>
		<use id="snowFlake3" href="#snowFlake" x="45" y="65"/>
		<animateTransform attributeName="transform" type="translate" values="5 0; 0 10; 7 20; 0 30; 10 40" dur="5s" repeatCount="indefinite" begin="0.5s" />
		<animate attributeName="opacity" values="1;1;1;0.75;0.5" dur="5s" repeatCount="indefinite" begin="0.5s" />
	</g>
	<g>
		<use id="snowFlake4" href="#snowFlake" x="50" y="65"/>
		<animateTransform attributeName="transform" type="translate" values="5 0; 0 10; 7 20; 0 30; 10 40" dur="6s" repeatCount="indefinite" begin="1s" />
		<animate attributeName="opacity" values="1;1;1;0.75;0.5" dur="6s" repeatCount="indefinite" begin="1s" />
	</g>
	<g>
		<use id="snowFlake5" href="#snowFlake" x="63" y="65"/>
		<animateTransform attributeName="transform" type="translate" values="5 0; 0 10; 7 20; 0 30; 10 40" dur="4s" repeatCount="indefinite" begin="0.6s" />
		<animate attributeName="opacity" values="1;1;1;0.75;0.5" dur="4s" repeatCount="indefinite" begin="0.6s" />
	</g>
      <use href="#whiteCloud" x="10" y="-10"/>

</svg>